<svg width="18" height="18" viewBox="0 0 18 18" fill="none" xmlns="http://www.w3.org/2000/svg">
<g id="FirstAid">
<path id="Vector (Stroke)" fill-rule="evenodd" clip-rule="evenodd" d="M6.517 2.017C6.72798 1.80603 7.01413 1.6875 7.3125 1.6875H10.6875C10.9859 1.6875 11.272 1.80603 11.483 2.017C11.694 2.22798 11.8125 2.51413 11.8125 2.8125V6.1875H15.1875C15.4859 6.1875 15.772 6.30603 15.983 6.517C16.194 6.72798 16.3125 7.01413 16.3125 7.3125V10.6875C16.3125 10.9859 16.194 11.272 15.983 11.483C15.772 11.694 15.4859 11.8125 15.1875 11.8125H11.8125V15.1875C11.8125 15.4859 11.694 15.772 11.483 15.983C11.272 16.194 10.9859 16.3125 10.6875 16.3125H7.3125C7.01413 16.3125 6.72798 16.194 6.517 15.983C6.30603 15.772 6.1875 15.4859 6.1875 15.1875V11.8125H2.8125C2.51413 11.8125 2.22798 11.694 2.017 11.483C1.80603 11.272 1.6875 10.9859 1.6875 10.6875V7.3125C1.6875 7.01413 1.80603 6.72798 2.017 6.517C2.22798 6.30603 2.51413 6.1875 2.8125 6.1875H6.1875V2.8125C6.1875 2.51413 6.30603 2.22798 6.517 2.017ZM10.6875 2.8125H7.3125V6.75C7.3125 7.06066 7.06066 7.3125 6.75 7.3125H2.8125L2.8125 10.6875H6.75C7.06066 10.6875 7.3125 10.9393 7.3125 11.25V15.1875H10.6875V11.25C10.6875 10.9393 10.9393 10.6875 11.25 10.6875H15.1875V7.3125H11.25C10.9393 7.3125 10.6875 7.06066 10.6875 6.75V2.8125Z" fill="#6EBF12"/>
</g>
</svg>