<svg width="22" height="23" viewBox="0 0 22 23" fill="none" xmlns="http://www.w3.org/2000/svg">
<g id="FilePlus">
<path id="Vector (Stroke)" fill-rule="evenodd" clip-rule="evenodd" d="M3.84023 2.96523C4.09809 2.70737 4.44783 2.5625 4.8125 2.5625H13.0625C13.2448 2.5625 13.4197 2.63493 13.5486 2.76386L18.3611 7.57636C18.4901 7.7053 18.5625 7.88016 18.5625 8.0625V19.0625C18.5625 19.4272 18.4176 19.7769 18.1598 20.0348C17.9019 20.2926 17.5522 20.4375 17.1875 20.4375H4.8125C4.44783 20.4375 4.09809 20.2926 3.84023 20.0348C3.58237 19.7769 3.4375 19.4272 3.4375 19.0625V3.9375C3.4375 3.57283 3.58237 3.22309 3.84023 2.96523ZM12.7777 3.9375L4.8125 3.9375L4.8125 19.0625H17.1875V8.34727L12.7777 3.9375Z" fill="white"/>
<path id="Vector (Stroke)_2" fill-rule="evenodd" clip-rule="evenodd" d="M13.0625 2.5625C13.4422 2.5625 13.75 2.8703 13.75 3.25V7.375H17.875C18.2547 7.375 18.5625 7.6828 18.5625 8.0625C18.5625 8.4422 18.2547 8.75 17.875 8.75H13.0625C12.6828 8.75 12.375 8.4422 12.375 8.0625V3.25C12.375 2.8703 12.6828 2.5625 13.0625 2.5625Z" fill="white"/>
<path id="Vector (Stroke)_3" fill-rule="evenodd" clip-rule="evenodd" d="M8.25 13.5625C8.25 13.1828 8.5578 12.875 8.9375 12.875H13.0625C13.4422 12.875 13.75 13.1828 13.75 13.5625C13.75 13.9422 13.4422 14.25 13.0625 14.25H8.9375C8.5578 14.25 8.25 13.9422 8.25 13.5625Z" fill="white"/>
<path id="Vector (Stroke)_4" fill-rule="evenodd" clip-rule="evenodd" d="M11 10.8125C11.3797 10.8125 11.6875 11.1203 11.6875 11.5V15.625C11.6875 16.0047 11.3797 16.3125 11 16.3125C10.6203 16.3125 10.3125 16.0047 10.3125 15.625V11.5C10.3125 11.1203 10.6203 10.8125 11 10.8125Z" fill="white"/>
</g>
</svg>
