<svg width="22" height="23" viewBox="0 0 22 23" fill="none" xmlns="http://www.w3.org/2000/svg">
    <g id="FolderUser">
        <path id="Vector (Stroke)" fill-rule="evenodd" clip-rule="evenodd"
            d="M16.1562 13.9062C15.3969 13.9062 14.7812 14.5219 14.7812 15.2812C14.7812 16.0406 15.3969 16.6562 16.1562 16.6562C16.9156 16.6562 17.5312 16.0406 17.5312 15.2812C17.5312 14.5219 16.9156 13.9062 16.1562 13.9062ZM13.4062 15.2812C13.4062 13.7625 14.6375 12.5312 16.1562 12.5312C17.675 12.5312 18.9062 13.7625 18.9062 15.2812C18.9062 16.8 17.675 18.0312 16.1562 18.0312C14.6375 18.0312 13.4062 16.8 13.4062 15.2812Z"
            fill="white" />
        <path id="Vector (Stroke)_2" fill-rule="evenodd" clip-rule="evenodd"
            d="M16.1564 18.0259C15.6985 18.0259 15.2535 18.1783 14.8917 18.4591C14.53 18.7399 14.272 19.1331 14.1584 19.5768C14.0642 19.9446 13.6897 20.1665 13.3218 20.0723C12.954 19.9781 12.7322 19.6036 12.8263 19.2357C13.0157 18.4963 13.4457 17.8409 14.0486 17.3729C14.6516 16.9049 15.3931 16.6509 16.1564 16.6509C16.9197 16.6509 17.6613 16.9049 18.2642 17.3729C18.8671 17.8409 19.2972 18.4963 19.4865 19.2357C19.5807 19.6036 19.3588 19.9781 18.991 20.0723C18.6232 20.1665 18.2486 19.9446 18.1545 19.5768C18.0409 19.1331 17.7829 18.7399 17.4211 18.4591C17.0593 18.1783 16.6144 18.0259 16.1564 18.0259Z"
            fill="white" />
        <path id="Vector (Stroke)_3" fill-rule="evenodd" clip-rule="evenodd"
            d="M2.11101 4.6129C2.11761 4.23798 2.42343 3.9375 2.79841 3.9375H8.25C8.44825 3.9375 8.63685 4.02308 8.7674 4.17228L10.9682 6.6875H18.5625C18.9272 6.6875 19.2769 6.83237 19.5348 7.09023C19.7926 7.34809 19.9375 7.69783 19.9375 8.0625V10.8125C19.9375 11.1922 19.6297 11.5 19.25 11.5C18.8703 11.5 18.5625 11.1922 18.5625 10.8125V8.0625H3.4375V17.6875H10.3641C10.7438 17.6875 11.0516 17.9953 11.0516 18.375C11.0516 18.7547 10.7438 19.0625 10.3641 19.0625H3.38594C3.21214 19.0625 3.04005 19.0283 2.87948 18.9618C2.71892 18.8953 2.57302 18.7978 2.45013 18.6749C2.32723 18.552 2.22975 18.4061 2.16324 18.2455C2.09673 18.085 2.0625 17.9129 2.0625 17.7391V7.375L2.06261 7.3629L2.11101 4.6129ZM3.44971 6.6875H9.14116L7.93803 5.3125H3.47391L3.44971 6.6875Z"
            fill="white" />
    </g>
</svg>
